<mxfile host="app.diagrams.net" agent="Mozilla/5.0 (X11; Linux x86_64; rv:138.0) Gecko/20100101 Firefox/138.0" version="27.0.4">
  <diagram name="Page-1" id="J_yjMx-JEXMq12CkNJ9D">
    <mxGraphModel dx="763" dy="574" grid="1" gridSize="10" guides="1" tooltips="1" connect="1" arrows="1" fold="1" page="1" pageScale="1" pageWidth="850" pageHeight="1100" math="1" shadow="0">
      <root>
        <mxCell id="0" />
        <mxCell id="1" parent="0" />
        <mxCell id="5pTOzNTw-zX1XQqW_gen-37" value="" style="endArrow=classic;html=1;rounded=0;" edge="1" parent="1" source="5pTOzNTw-zX1XQqW_gen-12" target="5pTOzNTw-zX1XQqW_gen-22">
          <mxGeometry width="50" height="50" relative="1" as="geometry">
            <mxPoint x="243" y="290" as="sourcePoint" />
            <mxPoint x="318" y="410" as="targetPoint" />
          </mxGeometry>
        </mxCell>
        <mxCell id="5pTOzNTw-zX1XQqW_gen-36" value="" style="endArrow=classic;html=1;rounded=0;" edge="1" parent="1" source="5pTOzNTw-zX1XQqW_gen-10" target="5pTOzNTw-zX1XQqW_gen-22">
          <mxGeometry width="50" height="50" relative="1" as="geometry">
            <mxPoint x="193" y="210" as="sourcePoint" />
            <mxPoint x="218" y="250" as="targetPoint" />
          </mxGeometry>
        </mxCell>
        <mxCell id="5pTOzNTw-zX1XQqW_gen-1" value="$$\{2, 0, 1, 1\}$$" style="rounded=0;whiteSpace=wrap;html=1;" vertex="1" parent="1">
          <mxGeometry x="120" y="160" width="100" height="40" as="geometry" />
        </mxCell>
        <mxCell id="5pTOzNTw-zX1XQqW_gen-2" value="$$\{1, 0, 1, 2\}$$" style="rounded=0;whiteSpace=wrap;html=1;" vertex="1" parent="1">
          <mxGeometry x="220" y="160" width="100" height="40" as="geometry" />
        </mxCell>
        <mxCell id="5pTOzNTw-zX1XQqW_gen-3" value="$$\{0, 1, 0, 3\}$$" style="rounded=0;whiteSpace=wrap;html=1;" vertex="1" parent="1">
          <mxGeometry x="320" y="160" width="100" height="40" as="geometry" />
        </mxCell>
        <mxCell id="5pTOzNTw-zX1XQqW_gen-4" value="$$\{0, 2, 0, 2\}$$" style="rounded=0;whiteSpace=wrap;html=1;" vertex="1" parent="1">
          <mxGeometry x="420" y="160" width="100" height="40" as="geometry" />
        </mxCell>
        <mxCell id="5pTOzNTw-zX1XQqW_gen-5" value="" style="endArrow=none;html=1;rounded=0;" edge="1" parent="1">
          <mxGeometry width="50" height="50" relative="1" as="geometry">
            <mxPoint x="520" y="160" as="sourcePoint" />
            <mxPoint x="560" y="160" as="targetPoint" />
          </mxGeometry>
        </mxCell>
        <mxCell id="5pTOzNTw-zX1XQqW_gen-6" value="" style="endArrow=none;html=1;rounded=0;" edge="1" parent="1">
          <mxGeometry width="50" height="50" relative="1" as="geometry">
            <mxPoint x="520" y="200" as="sourcePoint" />
            <mxPoint x="560" y="200" as="targetPoint" />
          </mxGeometry>
        </mxCell>
        <mxCell id="5pTOzNTw-zX1XQqW_gen-7" value="$$\ldots$$" style="text;html=1;align=center;verticalAlign=middle;whiteSpace=wrap;rounded=0;" vertex="1" parent="1">
          <mxGeometry x="520" y="160" width="40" height="40" as="geometry" />
        </mxCell>
        <mxCell id="5pTOzNTw-zX1XQqW_gen-10" value="$$\{3, 0, 2, 3\}$$" style="rounded=0;whiteSpace=wrap;html=1;" vertex="1" parent="1">
          <mxGeometry x="120" y="240" width="200" height="40" as="geometry" />
        </mxCell>
        <mxCell id="5pTOzNTw-zX1XQqW_gen-12" value="$$\{0, 3, 0, 5\}$$" style="rounded=0;whiteSpace=wrap;html=1;" vertex="1" parent="1">
          <mxGeometry x="320" y="240" width="200" height="40" as="geometry" />
        </mxCell>
        <mxCell id="5pTOzNTw-zX1XQqW_gen-14" value="" style="endArrow=none;html=1;rounded=0;" edge="1" parent="1">
          <mxGeometry width="50" height="50" relative="1" as="geometry">
            <mxPoint x="520" y="240" as="sourcePoint" />
            <mxPoint x="560" y="240" as="targetPoint" />
          </mxGeometry>
        </mxCell>
        <mxCell id="5pTOzNTw-zX1XQqW_gen-15" value="" style="endArrow=none;html=1;rounded=0;" edge="1" parent="1">
          <mxGeometry width="50" height="50" relative="1" as="geometry">
            <mxPoint x="520" y="280" as="sourcePoint" />
            <mxPoint x="560" y="280" as="targetPoint" />
          </mxGeometry>
        </mxCell>
        <mxCell id="5pTOzNTw-zX1XQqW_gen-16" value="$$\ldots$$" style="text;html=1;align=center;verticalAlign=middle;whiteSpace=wrap;rounded=0;" vertex="1" parent="1">
          <mxGeometry x="520" y="240" width="40" height="40" as="geometry" />
        </mxCell>
        <mxCell id="5pTOzNTw-zX1XQqW_gen-17" value="$$\{3, 1, 2, 6\}$$" style="rounded=0;whiteSpace=wrap;html=1;" vertex="1" parent="1">
          <mxGeometry x="120" y="320" width="300" height="40" as="geometry" />
        </mxCell>
        <mxCell id="5pTOzNTw-zX1XQqW_gen-19" value="" style="endArrow=none;html=1;rounded=0;" edge="1" parent="1">
          <mxGeometry width="50" height="50" relative="1" as="geometry">
            <mxPoint x="420" y="320" as="sourcePoint" />
            <mxPoint x="560" y="320" as="targetPoint" />
          </mxGeometry>
        </mxCell>
        <mxCell id="5pTOzNTw-zX1XQqW_gen-20" value="" style="endArrow=none;html=1;rounded=0;" edge="1" parent="1">
          <mxGeometry width="50" height="50" relative="1" as="geometry">
            <mxPoint x="420" y="360" as="sourcePoint" />
            <mxPoint x="560" y="360" as="targetPoint" />
          </mxGeometry>
        </mxCell>
        <mxCell id="5pTOzNTw-zX1XQqW_gen-21" value="$$\ldots$$" style="text;html=1;align=center;verticalAlign=middle;whiteSpace=wrap;rounded=0;" vertex="1" parent="1">
          <mxGeometry x="420" y="320" width="140" height="40" as="geometry" />
        </mxCell>
        <mxCell id="5pTOzNTw-zX1XQqW_gen-22" value="$$\{3, 3, 2, 8\}$$" style="rounded=0;whiteSpace=wrap;html=1;" vertex="1" parent="1">
          <mxGeometry x="120" y="400" width="400" height="40" as="geometry" />
        </mxCell>
        <mxCell id="5pTOzNTw-zX1XQqW_gen-24" value="" style="endArrow=none;html=1;rounded=0;" edge="1" parent="1">
          <mxGeometry width="50" height="50" relative="1" as="geometry">
            <mxPoint x="520" y="400" as="sourcePoint" />
            <mxPoint x="560" y="400" as="targetPoint" />
          </mxGeometry>
        </mxCell>
        <mxCell id="5pTOzNTw-zX1XQqW_gen-25" value="" style="endArrow=none;html=1;rounded=0;" edge="1" parent="1">
          <mxGeometry width="50" height="50" relative="1" as="geometry">
            <mxPoint x="520" y="440" as="sourcePoint" />
            <mxPoint x="560" y="440" as="targetPoint" />
          </mxGeometry>
        </mxCell>
        <mxCell id="5pTOzNTw-zX1XQqW_gen-26" value="$$\ldots$$" style="text;html=1;align=center;verticalAlign=middle;whiteSpace=wrap;rounded=0;" vertex="1" parent="1">
          <mxGeometry x="520" y="400" width="40" height="40" as="geometry" />
        </mxCell>
        <mxCell id="5pTOzNTw-zX1XQqW_gen-27" value="$$\textnormal{Interval Size}$$" style="text;html=1;align=center;verticalAlign=middle;whiteSpace=wrap;rounded=0;" vertex="1" parent="1">
          <mxGeometry y="120" width="120" height="40" as="geometry" />
        </mxCell>
        <mxCell id="5pTOzNTw-zX1XQqW_gen-28" value="$$4:$$" style="text;html=1;align=center;verticalAlign=middle;whiteSpace=wrap;rounded=0;" vertex="1" parent="1">
          <mxGeometry x="80" y="160" width="40" height="40" as="geometry" />
        </mxCell>
        <mxCell id="5pTOzNTw-zX1XQqW_gen-29" value="$$8:$$" style="text;html=1;align=center;verticalAlign=middle;whiteSpace=wrap;rounded=0;" vertex="1" parent="1">
          <mxGeometry x="80" y="240" width="40" height="40" as="geometry" />
        </mxCell>
        <mxCell id="5pTOzNTw-zX1XQqW_gen-30" value="$$12:$$" style="text;html=1;align=center;verticalAlign=middle;whiteSpace=wrap;rounded=0;" vertex="1" parent="1">
          <mxGeometry x="80" y="320" width="40" height="40" as="geometry" />
        </mxCell>
        <mxCell id="5pTOzNTw-zX1XQqW_gen-31" value="$$16:$$" style="text;html=1;align=center;verticalAlign=middle;whiteSpace=wrap;rounded=0;" vertex="1" parent="1">
          <mxGeometry x="80" y="400" width="40" height="40" as="geometry" />
        </mxCell>
        <mxCell id="5pTOzNTw-zX1XQqW_gen-32" value="" style="endArrow=classic;html=1;rounded=0;" edge="1" parent="1" source="5pTOzNTw-zX1XQqW_gen-1" target="5pTOzNTw-zX1XQqW_gen-10">
          <mxGeometry width="50" height="50" relative="1" as="geometry">
            <mxPoint x="195" y="110" as="sourcePoint" />
            <mxPoint x="245" y="60" as="targetPoint" />
          </mxGeometry>
        </mxCell>
        <mxCell id="5pTOzNTw-zX1XQqW_gen-33" value="" style="endArrow=classic;html=1;rounded=0;" edge="1" parent="1" source="5pTOzNTw-zX1XQqW_gen-2" target="5pTOzNTw-zX1XQqW_gen-10">
          <mxGeometry width="50" height="50" relative="1" as="geometry">
            <mxPoint x="193" y="210" as="sourcePoint" />
            <mxPoint x="218" y="250" as="targetPoint" />
          </mxGeometry>
        </mxCell>
        <mxCell id="5pTOzNTw-zX1XQqW_gen-34" value="" style="endArrow=classic;html=1;rounded=0;" edge="1" parent="1" source="5pTOzNTw-zX1XQqW_gen-3" target="5pTOzNTw-zX1XQqW_gen-12">
          <mxGeometry width="50" height="50" relative="1" as="geometry">
            <mxPoint x="340" y="220" as="sourcePoint" />
            <mxPoint x="365" y="260" as="targetPoint" />
          </mxGeometry>
        </mxCell>
        <mxCell id="5pTOzNTw-zX1XQqW_gen-35" value="" style="endArrow=classic;html=1;rounded=0;" edge="1" parent="1" source="5pTOzNTw-zX1XQqW_gen-4" target="5pTOzNTw-zX1XQqW_gen-12">
          <mxGeometry width="50" height="50" relative="1" as="geometry">
            <mxPoint x="268" y="210" as="sourcePoint" />
            <mxPoint x="243" y="250" as="targetPoint" />
          </mxGeometry>
        </mxCell>
        <mxCell id="5pTOzNTw-zX1XQqW_gen-38" value="" style="endArrow=classic;html=1;rounded=0;entryX=0.25;entryY=0;entryDx=0;entryDy=0;dashed=1;dashPattern=8 8;" edge="1" parent="1" source="5pTOzNTw-zX1XQqW_gen-1" target="5pTOzNTw-zX1XQqW_gen-17">
          <mxGeometry width="50" height="50" relative="1" as="geometry">
            <mxPoint x="193" y="210" as="sourcePoint" />
            <mxPoint x="218" y="250" as="targetPoint" />
          </mxGeometry>
        </mxCell>
        <mxCell id="5pTOzNTw-zX1XQqW_gen-39" value="" style="endArrow=classic;html=1;rounded=0;dashed=1;dashPattern=8 8;" edge="1" parent="1" source="5pTOzNTw-zX1XQqW_gen-2" target="5pTOzNTw-zX1XQqW_gen-17">
          <mxGeometry width="50" height="50" relative="1" as="geometry">
            <mxPoint x="184" y="210" as="sourcePoint" />
            <mxPoint x="205" y="330" as="targetPoint" />
          </mxGeometry>
        </mxCell>
        <mxCell id="5pTOzNTw-zX1XQqW_gen-40" value="" style="endArrow=classic;html=1;rounded=0;dashed=1;dashPattern=8 8;entryX=0.75;entryY=0;entryDx=0;entryDy=0;" edge="1" parent="1" source="5pTOzNTw-zX1XQqW_gen-3" target="5pTOzNTw-zX1XQqW_gen-17">
          <mxGeometry width="50" height="50" relative="1" as="geometry">
            <mxPoint x="280" y="210" as="sourcePoint" />
            <mxPoint x="280" y="330" as="targetPoint" />
          </mxGeometry>
        </mxCell>
        <mxCell id="5pTOzNTw-zX1XQqW_gen-41" value="" style="endArrow=classic;html=1;rounded=0;dashed=1;dashPattern=8 8;entryX=0.5;entryY=0;entryDx=0;entryDy=0;" edge="1" parent="1" source="5pTOzNTw-zX1XQqW_gen-4" target="5pTOzNTw-zX1XQqW_gen-21">
          <mxGeometry width="50" height="50" relative="1" as="geometry">
            <mxPoint x="376" y="210" as="sourcePoint" />
            <mxPoint x="355" y="330" as="targetPoint" />
          </mxGeometry>
        </mxCell>
      </root>
    </mxGraphModel>
  </diagram>
</mxfile>
